<?xml version="1.0" encoding="UTF-8"?>
<svg id="Layer_1" xmlns="http://www.w3.org/2000/svg" version="1.1" viewBox="0 0 250 150">
  <!-- Generator: Adobe Illustrator 29.3.1, SVG Export Plug-In . SVG Version: 2.1.0 Build 151)  -->
  <defs>
    <style>
      .st0 {
        fill: #a3052d;
      }

      .st1 {
        fill: #6b6b6b;
      }
    </style>
  </defs>
  <g>
    <path class="st0" d="M71.33,60.92c0-10.94,0-12.96-.14-15.27-.14-2.45-.72-3.6-3.1-4.1-.58-.14-1.8-.22-2.81-.22-.79,0-1.22-.14-1.22-.65s.5-.65,1.58-.65c1.94,0,4.03.07,5.83.07,1.87.07,3.53.14,4.54.14,2.3,0,16.63,0,18-.07,1.37-.14,2.52-.29,3.1-.43.36-.07.79-.29,1.15-.29s.43.29.43.65c0,.5-.36,1.37-.58,4.68-.07.72-.22,3.89-.36,4.75-.07.36-.22.79-.72.79s-.65-.36-.65-1.01c0-.5-.07-1.73-.43-2.59-.5-1.3-1.22-2.16-4.82-2.59-1.22-.14-8.78-.29-10.23-.29-.36,0-.5.22-.5.72v18.22c0,.5.07.79.5.79,1.58,0,9.86,0,11.52-.14,1.73-.14,2.81-.36,3.46-1.08.5-.58.79-.94,1.15-.94.29,0,.5.14.5.58s-.29,1.58-.58,5.26c-.07,1.44-.29,4.32-.29,4.82,0,.58,0,1.37-.65,1.37-.5,0-.65-.29-.65-.65-.07-.72-.07-1.66-.29-2.59-.36-1.44-1.37-2.52-4.03-2.81-1.37-.14-8.5-.22-10.22-.22-.36,0-.43.29-.43.72v5.69c0,2.45-.07,9.07,0,11.16.14,4.97,1.3,6.05,8.64,6.05,1.87,0,4.9,0,6.77-.86s2.74-2.38,3.24-5.33c.14-.79.29-1.08.79-1.08.58,0,.58.58.58,1.3,0,1.66-.58,6.55-.94,7.99-.5,1.87-1.15,1.87-3.89,1.87-5.4,0-9.36-.14-12.46-.22-3.1-.14-5.33-.22-7.49-.22-.79,0-2.38,0-4.1.07-1.66,0-3.53.14-4.97.14-.94,0-1.44-.22-1.44-.72,0-.36.29-.58,1.15-.58,1.08,0,1.94-.14,2.59-.29,1.44-.29,1.8-1.87,2.09-3.96.36-3.02.36-8.71.36-15.34v-12.67Z"/>
    <path class="st0" d="M125.83,73.6c0,9.22,0,14.19,1.51,15.48,1.22,1.08,3.1,1.58,8.71,1.58,3.82,0,6.62-.07,8.42-2.02.86-.94,1.73-2.95,1.87-4.32.07-.65.22-1.08.79-1.08.5,0,.58.36.58,1.22,0,.79-.5,6.19-1.08,8.28-.43,1.58-.79,1.94-4.54,1.94-5.18,0-8.93-.14-12.17-.22-3.24-.14-5.83-.22-8.78-.22-.79,0-2.38,0-4.1.07-1.66,0-3.53.14-4.97.14-.94,0-1.44-.22-1.44-.72,0-.36.29-.58,1.15-.58,1.08,0,1.94-.14,2.59-.29,1.44-.29,1.8-1.87,2.09-3.96.36-3.02.36-8.71.36-15.34v-12.67c0-10.94,0-12.96-.14-15.27-.14-2.45-.72-3.6-3.1-4.1-.58-.14-1.44-.22-2.38-.22-.79,0-1.22-.14-1.22-.65s.5-.65,1.58-.65c3.38,0,7.92.22,9.86.22,1.73,0,6.98-.22,9.79-.22,1.01,0,1.51.14,1.51.65s-.43.65-1.3.65c-.79,0-1.94.07-2.81.22-1.94.36-2.52,1.58-2.66,4.1-.14,2.3-.14,4.32-.14,15.27v12.67Z"/>
    <path class="st0" d="M156.43,93.61c-1.15-.5-1.37-.86-1.37-2.45,0-3.96.29-8.28.36-9.43.07-1.08.29-1.87.86-1.87.65,0,.72.65.72,1.22,0,.94.29,2.45.65,3.67,1.58,5.33,5.83,7.27,10.3,7.27,6.48,0,9.65-4.39,9.65-8.21,0-3.53-1.08-6.84-7.06-11.52l-3.31-2.59c-7.92-6.19-10.66-11.23-10.66-17.07,0-7.92,6.62-13.61,16.63-13.61,4.68,0,7.71.72,9.58,1.22.65.14,1.01.36,1.01.86,0,.94-.29,3.02-.29,8.64,0,1.58-.22,2.16-.79,2.16-.5,0-.72-.43-.72-1.3,0-.65-.36-2.88-1.87-4.75-1.08-1.37-3.17-3.53-7.85-3.53-5.33,0-8.57,3.1-8.57,7.42,0,3.31,1.66,5.83,7.63,10.37l2.02,1.51c8.71,6.55,11.81,11.52,11.81,18.36,0,4.18-1.58,9.15-6.77,12.53-3.6,2.3-7.63,2.95-11.45,2.95-4.18,0-7.42-.5-10.51-1.87Z"/>
  </g>
  <g>
    <path class="st1" d="M74.15,108.46c0,2.3,0,3.55.38,3.87.31.27.77.4,2.18.4.95,0,1.66-.02,2.11-.5.22-.23.43-.74.47-1.08.02-.16.05-.27.2-.27.13,0,.14.09.14.31,0,.2-.13,1.55-.27,2.07-.11.4-.2.49-1.13.49-1.3,0-2.23-.04-3.04-.05-.81-.04-1.46-.05-2.2-.05-.2,0-.59,0-1.03.02-.41,0-.88.04-1.24.04-.23,0-.36-.05-.36-.18,0-.09.07-.14.29-.14.27,0,.49-.04.65-.07.36-.07.45-.47.52-.99.09-.76.09-2.18.09-3.83v-3.17c0-2.74,0-3.24-.04-3.82-.04-.61-.18-.9-.77-1.03-.14-.04-.36-.05-.59-.05-.2,0-.31-.04-.31-.16s.13-.16.4-.16c.85,0,1.98.05,2.47.05.43,0,1.75-.05,2.45-.05.25,0,.38.04.38.16s-.11.16-.32.16c-.2,0-.49.02-.7.05-.49.09-.63.4-.67,1.03-.04.58-.04,1.08-.04,3.82v3.17Z"/>
    <path class="st1" d="M95.39,105.29c0-2.74,0-3.24-.04-3.82-.04-.61-.18-.9-.77-1.03-.14-.04-.45-.05-.7-.05-.2,0-.31-.04-.31-.16s.13-.16.4-.16c.49,0,1.01.02,1.46.02.47.02.88.04,1.13.04.58,0,4.16,0,4.5-.02.34-.04.63-.07.77-.11.09-.02.2-.07.29-.07s.11.07.11.16c0,.13-.09.34-.14,1.17-.02.18-.05.97-.09,1.19-.02.09-.05.2-.18.2s-.16-.09-.16-.25c0-.13-.02-.43-.11-.65-.13-.32-.31-.54-1.21-.65-.31-.04-2.2-.07-2.56-.07-.09,0-.13.05-.13.18v4.56c0,.13.02.2.13.2.4,0,2.47,0,2.88-.04.43-.04.7-.09.86-.27.13-.14.2-.23.29-.23.07,0,.13.04.13.14s-.07.4-.14,1.31c-.02.36-.07,1.08-.07,1.21,0,.14,0,.34-.16.34-.13,0-.16-.07-.16-.16-.02-.18-.02-.41-.07-.65-.09-.36-.34-.63-1.01-.7-.34-.04-2.12-.05-2.56-.05-.09,0-.11.07-.11.18v1.42c0,.61-.02,2.27,0,2.79.04,1.24.32,1.51,2.16,1.51.47,0,1.22,0,1.69-.22.47-.22.68-.59.81-1.33.04-.2.07-.27.2-.27.14,0,.14.14.14.32,0,.42-.14,1.64-.23,2-.13.47-.29.47-.97.47-1.35,0-2.34-.04-3.11-.05-.77-.04-1.33-.05-1.87-.05-.2,0-.59,0-1.03.02-.41,0-.88.04-1.24.04-.23,0-.36-.05-.36-.18,0-.09.07-.14.29-.14.27,0,.49-.04.65-.07.36-.07.45-.47.52-.99.09-.76.09-2.18.09-3.83v-3.17Z"/>
    <path class="st1" d="M130.3,112.47c0,.49-.02.52-.23.65-1.17.61-2.93.81-4.34.81-4.41,0-8.32-2.09-8.32-7.06,0-2.88,1.49-4.9,3.13-5.89,1.73-1.04,3.33-1.17,4.84-1.17,1.24,0,2.83.22,3.19.29.38.07,1.01.18,1.42.2.22.02.25.09.25.22,0,.2-.13.7-.13,2.95,0,.29-.05.38-.2.38-.13,0-.16-.09-.18-.23-.05-.42-.14-.99-.61-1.5-.54-.58-1.98-1.4-4.02-1.4-.99,0-2.3.07-3.57,1.12-1.01.85-1.66,2.2-1.66,4.41,0,3.87,2.47,6.77,6.27,6.77.47,0,1.1,0,1.53-.2.27-.13.34-.36.34-.67v-1.69c0-.9,0-1.58-.02-2.12-.02-.61-.18-.9-.77-1.03-.14-.04-.45-.05-.7-.05-.16,0-.27-.04-.27-.14,0-.14.13-.18.38-.18.94,0,2.07.05,2.61.05s1.51-.05,2.11-.05c.23,0,.36.04.36.18,0,.11-.11.14-.23.14-.14,0-.27.02-.49.05-.49.09-.67.4-.68,1.03-.02.54-.02,1.26-.02,2.16v1.98Z"/>
    <path class="st1" d="M148.63,108.98c-.09,0-.13.04-.16.14l-.97,2.58c-.18.45-.27.88-.27,1.1,0,.32.16.56.72.56h.27c.22,0,.27.04.27.14,0,.14-.11.18-.31.18-.58,0-1.35-.05-1.91-.05-.2,0-1.19.05-2.12.05-.23,0-.34-.04-.34-.18,0-.11.07-.14.22-.14.16,0,.42-.02.56-.04.83-.11,1.17-.72,1.53-1.62l4.52-11.31c.22-.52.32-.72.5-.72.16,0,.27.16.45.58.43.99,3.31,8.34,4.46,11.07.68,1.62,1.21,1.87,1.58,1.96.27.05.54.07.76.07.14,0,.23.02.23.14,0,.14-.16.18-.83.18s-1.96,0-3.4-.04c-.32-.02-.54-.02-.54-.14,0-.11.07-.14.25-.16.13-.04.25-.2.16-.41l-1.44-3.82c-.04-.09-.09-.13-.18-.13h-4.02ZM152.31,108.08c.09,0,.11-.05.09-.11l-1.62-4.45c-.02-.07-.04-.16-.09-.16s-.09.09-.11.16l-1.66,4.43c-.02.07,0,.13.07.13h3.31Z"/>
    <path class="st1" d="M175.36,108.46c0,2.3,0,3.55.38,3.87.31.27.77.4,2.18.4.95,0,1.66-.02,2.11-.5.22-.23.43-.74.47-1.08.02-.16.05-.27.2-.27.13,0,.14.09.14.31,0,.2-.13,1.55-.27,2.07-.11.4-.2.49-1.13.49-1.3,0-2.23-.04-3.04-.05-.81-.04-1.46-.05-2.2-.05-.2,0-.59,0-1.03.02-.41,0-.88.04-1.24.04-.23,0-.36-.05-.36-.18,0-.09.07-.14.29-.14.27,0,.49-.04.65-.07.36-.07.45-.47.52-.99.09-.76.09-2.18.09-3.83v-3.17c0-2.74,0-3.24-.04-3.82-.04-.61-.18-.9-.77-1.03-.14-.04-.36-.05-.59-.05-.2,0-.31-.04-.31-.16s.13-.16.4-.16c.85,0,1.98.05,2.47.05.43,0,1.75-.05,2.45-.05.25,0,.38.04.38.16s-.11.16-.32.16c-.2,0-.49.02-.7.05-.49.09-.63.4-.67,1.03-.04.58-.04,1.08-.04,3.82v3.17Z"/>
  </g>
</svg>