<?xml version="1.0" encoding="UTF-8"?>
<svg id="Layer_2" data-name="Layer 2" xmlns="http://www.w3.org/2000/svg" viewBox="0 0 762.9 355.53">
  <defs>
    <style>
      .cls-1 {
        fill: #a3052d;
      }
    </style>
  </defs>
  <g id="Layer_1-2" data-name="Layer 1">
    <path class="cls-1" d="M45.8,217.67v-79.81c0-68.93,0-81.63-.91-96.14-.91-15.42-4.53-22.67-19.5-25.85-3.63-.91-11.34-1.36-17.69-1.36-4.99,0-7.71-.91-7.71-4.08s3.17-4.08,9.98-4.08c12.24,0,25.4.45,36.73.45,11.79.45,22.22.91,28.57.91,14.51,0,104.75,0,113.37-.45,8.62-.91,15.87-1.81,19.5-2.72,2.27-.45,4.99-1.81,7.26-1.81s2.72,1.81,2.72,4.08c0,3.17-2.27,8.62-3.63,29.48-.45,4.54-1.36,24.49-2.27,29.93-.45,2.27-1.36,4.99-4.54,4.99s-4.08-2.27-4.08-6.35c0-3.17-.45-10.88-2.72-16.33-3.17-8.16-7.71-13.6-30.38-16.33-7.71-.91-55.32-1.81-64.39-1.81-2.27,0-3.17,1.36-3.17,4.53v114.73c0,3.17.45,4.99,3.17,4.99,9.98,0,62.13,0,72.56-.91,10.88-.91,17.69-2.27,21.77-6.8,3.17-3.63,4.99-5.89,7.26-5.89,1.81,0,3.17.91,3.17,3.63s-1.81,9.98-3.63,33.1c-.45,9.07-1.81,27.21-1.81,30.38,0,3.63,0,8.62-4.08,8.62-3.17,0-4.08-1.81-4.08-4.08-.45-4.54-.45-10.43-1.81-16.33-2.27-9.07-8.62-15.87-25.4-17.69-8.62-.91-53.51-1.36-64.39-1.36-2.27,0-2.72,1.81-2.72,4.53v35.83c0,15.42-.45,57.14,0,70.29.91,31.29,8.16,38.09,54.42,38.09,11.79,0,30.84,0,42.63-5.44,11.79-5.44,17.23-14.96,20.41-33.56.91-4.99,1.81-6.8,4.99-6.8,3.63,0,3.63,3.63,3.63,8.16,0,10.43-3.63,41.27-5.9,50.34-3.17,11.79-7.26,11.79-24.49,11.79-34.01,0-58.95-.91-78.45-1.36-19.5-.91-33.56-1.36-47.16-1.36-4.99,0-14.96,0-25.85.45-10.43,0-22.22.91-31.29.91-5.9,0-9.07-1.36-9.07-4.53,0-2.27,1.81-3.63,7.26-3.63,6.8,0,12.24-.91,16.33-1.81,9.07-1.81,11.34-11.79,13.15-24.94,2.27-19.05,2.27-54.87,2.27-96.59ZM389.02,137.86v79.81c0,58.05,0,89.34,9.52,97.5,7.71,6.8,19.5,9.98,54.87,9.98,24.03,0,41.72-.45,53.06-12.7,5.44-5.9,10.88-18.59,11.79-27.21.45-4.08,1.36-6.8,4.99-6.8,3.17,0,3.63,2.27,3.63,7.71,0,4.99-3.17,39-6.8,52.15-2.72,9.98-4.99,12.24-28.57,12.24-32.65,0-56.23-.91-76.64-1.36-20.41-.91-36.73-1.36-55.32-1.36-4.99,0-14.96,0-25.85.45-10.43,0-22.22.91-31.29.91-5.9,0-9.07-1.36-9.07-4.53,0-2.27,1.81-3.63,7.26-3.63,6.8,0,12.24-.91,16.33-1.81,9.07-1.81,11.34-11.79,13.15-24.94,2.27-19.05,2.27-54.87,2.27-96.59v-79.81c0-68.93,0-81.63-.91-96.14-.91-15.42-4.54-22.67-19.5-25.85-3.63-.91-9.07-1.36-14.97-1.36-4.99,0-7.71-.91-7.71-4.08s3.17-4.08,9.98-4.08c21.31,0,49.88,1.36,62.13,1.36,10.88,0,43.99-1.36,61.67-1.36,6.35,0,9.52.91,9.52,4.08s-2.72,4.08-8.16,4.08c-4.99,0-12.24.45-17.69,1.36-12.24,2.27-15.87,9.98-16.78,25.85-.91,14.51-.91,27.21-.91,96.14ZM648.17,355.53c-26.3,0-46.71-3.17-66.21-11.79-7.26-3.17-8.62-5.44-8.62-15.42,0-24.94,1.81-52.15,2.27-59.41.45-6.8,1.81-11.79,5.44-11.79,4.08,0,4.54,4.08,4.54,7.71,0,5.9,1.81,15.42,4.08,23.13,9.98,33.56,36.73,45.8,64.85,45.8,40.81,0,60.77-27.66,60.77-51.7,0-22.22-6.8-43.08-44.44-72.56l-20.86-16.33c-49.88-39-67.12-70.74-67.12-107.48,0-49.88,41.72-85.71,104.75-85.71,29.48,0,48.52,4.53,60.32,7.71,4.08.91,6.34,2.27,6.34,5.44,0,5.9-1.81,19.05-1.81,54.42,0,9.98-1.36,13.61-4.99,13.61-3.18,0-4.53-2.72-4.53-8.16,0-4.08-2.27-18.14-11.79-29.93-6.8-8.62-19.95-22.22-49.43-22.22-33.56,0-53.97,19.5-53.97,46.71,0,20.86,10.43,36.73,48.07,65.3l12.7,9.52c54.87,41.27,74.37,72.56,74.37,115.64,0,26.3-9.98,57.59-42.63,78.91-22.67,14.51-48.07,18.59-72.1,18.59Z"/>
  </g>
</svg>